<svg width="129" height="72" viewBox="0 0 129 72" fill="none" xmlns="http://www.w3.org/2000/svg">
    <rect x="1" width="128" height="72" fill="#A243E3" />
    <rect x="95" y="17" width="34" height="55" fill="white" />
    <rect x="1" y="37" width="94" height="35" fill="white" />
    <rect width="34" height="55" fill="#A243E3" />
    <path
        d="M36.8008 29.545L38.0608 28.39C38.7508 29.26 39.5908 29.755 40.5058 29.755C41.5408 29.755 42.1408 29.17 42.1408 28.285C42.1408 26.11 37.2508 26.635 37.2508 23.125C37.2508 21.52 38.5858 20.2 40.4908 20.2C42.0058 20.2 43.1308 20.89 43.9708 21.94L42.6958 23.08C42.0808 22.225 41.3608 21.73 40.5058 21.73C39.5908 21.73 39.0058 22.285 39.0058 23.08C39.0058 25.24 43.8958 24.7 43.8958 28.24C43.8658 30.115 42.4108 31.3 40.5358 31.3C38.8858 31.3 37.7308 30.67 36.8008 29.545ZM49.6105 29.845C50.4655 29.845 51.1555 29.425 51.5755 28.84L52.7905 29.77C52.1005 30.7 50.9905 31.3 49.5955 31.3C47.0605 31.3 45.4705 29.425 45.4705 27.22C45.4705 25.015 47.0605 23.14 49.5955 23.14C50.9755 23.14 52.1005 23.74 52.7905 24.67L51.5755 25.6C51.1555 25.015 50.4655 24.595 49.5955 24.595C48.1405 24.595 47.0905 25.735 47.0905 27.22C47.0905 28.72 48.1405 29.845 49.6105 29.845ZM55.1855 21.76C54.6155 21.76 54.1355 21.28 54.1355 20.71C54.1355 20.14 54.6155 19.66 55.1855 19.66C55.7555 19.66 56.2355 20.14 56.2355 20.71C56.2355 21.28 55.7555 21.76 55.1855 21.76ZM54.4055 31V23.44H55.9505V31H54.4055ZM65.3028 29.77C64.5978 30.715 63.4428 31.3 62.0328 31.3C59.4228 31.3 57.8778 29.425 57.8778 27.22C57.8778 24.955 59.3178 23.14 61.7178 23.14C63.8028 23.14 65.1528 24.565 65.1528 26.485C65.1528 26.83 65.1078 27.175 65.0478 27.4H59.4678C59.5728 29.05 60.5778 29.905 62.0328 29.905C62.9478 29.905 63.7128 29.5 64.1778 28.87L65.3028 29.77ZM61.6878 24.43C60.5628 24.43 59.7828 25.075 59.5428 26.245H63.6078C63.5778 25.3 62.9028 24.43 61.6878 24.43ZM67.1789 31V23.44H68.7239V24.175C69.2939 23.575 70.0439 23.14 71.1239 23.14C72.7889 23.14 74.0639 24.265 74.0639 26.455V31H72.5039V26.515C72.5039 25.315 71.8439 24.595 70.7639 24.595C69.7289 24.595 69.1139 25.24 68.7239 25.9V31H67.1789ZM80.0061 29.845C80.8611 29.845 81.5511 29.425 81.9711 28.84L83.1861 29.77C82.4961 30.7 81.3861 31.3 79.9911 31.3C77.4561 31.3 75.8661 29.425 75.8661 27.22C75.8661 25.015 77.4561 23.14 79.9911 23.14C81.3711 23.14 82.4961 23.74 83.1861 24.67L81.9711 25.6C81.5511 25.015 80.8611 24.595 79.9911 24.595C78.5361 24.595 77.4861 25.735 77.4861 27.22C77.4861 28.72 78.5361 29.845 80.0061 29.845ZM91.333 29.77C90.628 30.715 89.473 31.3 88.063 31.3C85.453 31.3 83.908 29.425 83.908 27.22C83.908 24.955 85.348 23.14 87.748 23.14C89.833 23.14 91.183 24.565 91.183 26.485C91.183 26.83 91.138 27.175 91.078 27.4H85.498C85.603 29.05 86.608 29.905 88.063 29.905C88.978 29.905 89.743 29.5 90.208 28.87L91.333 29.77ZM87.718 24.43C86.593 24.43 85.813 25.075 85.573 26.245H89.638C89.608 25.3 88.933 24.43 87.718 24.43Z"
        fill="white" />
    <path
        d="M44.2138 45.76C43.6438 45.76 43.1638 45.28 43.1638 44.71C43.1638 44.14 43.6438 43.66 44.2138 43.66C44.7838 43.66 45.2638 44.14 45.2638 44.71C45.2638 45.28 44.7838 45.76 44.2138 45.76ZM43.4338 55V47.44H44.9788V55H43.4338ZM47.5061 55V47.44H49.0511V48.175C49.6211 47.575 50.3711 47.14 51.4511 47.14C53.1161 47.14 54.3911 48.265 54.3911 50.455V55H52.8311V50.515C52.8311 49.315 52.1711 48.595 51.0911 48.595C50.0561 48.595 49.4411 49.24 49.0511 49.9V55H47.5061ZM55.8182 47.44H57.2432V46.57C57.2432 44.965 58.2932 43.75 60.0482 43.75C60.7382 43.75 61.3082 43.93 61.7432 44.17L61.0832 45.475C60.8282 45.28 60.4982 45.145 60.0782 45.145C59.3132 45.145 58.8032 45.67 58.8032 46.525V47.44H61.3082V48.835H58.8032V55H57.2432V48.835H55.8182V47.44ZM67.8412 51.76V47.44H69.4012V51.685C69.4012 53.95 68.0962 55.3 65.9812 55.3C63.8512 55.3 62.5462 53.95 62.5462 51.685V47.44H64.1062V51.76C64.1062 53.065 64.7962 53.845 65.9812 53.845C67.1362 53.845 67.8412 53.065 67.8412 51.76ZM70.9553 53.935L72.0203 53.005C72.5153 53.635 73.1153 54.04 73.8653 54.04C74.6003 54.04 75.0053 53.59 75.0053 53.02C75.0053 51.49 71.3003 52.045 71.3003 49.375C71.3003 48.13 72.3503 47.14 73.8653 47.14C74.9753 47.14 75.9503 47.68 76.4903 48.4L75.4403 49.315C75.0353 48.775 74.5103 48.4 73.8803 48.4C73.1603 48.4 72.8003 48.82 72.8003 49.33C72.8003 50.845 76.5053 50.335 76.5053 52.93C76.4903 54.415 75.2903 55.3 73.8803 55.3C72.6053 55.3 71.6603 54.79 70.9553 53.935ZM85.21 53.77C84.505 54.715 83.35 55.3 81.94 55.3C79.33 55.3 77.785 53.425 77.785 51.22C77.785 48.955 79.225 47.14 81.625 47.14C83.71 47.14 85.06 48.565 85.06 50.485C85.06 50.83 85.015 51.175 84.955 51.4H79.375C79.48 53.05 80.485 53.905 81.94 53.905C82.855 53.905 83.62 53.5 84.085 52.87L85.21 53.77ZM81.595 48.43C80.47 48.43 79.69 49.075 79.45 50.245H83.515C83.485 49.3 82.81 48.43 81.595 48.43Z"
        fill="black" />
</svg>