<svg width="23" height="20" viewBox="0 0 23 20" fill="none" xmlns="http://www.w3.org/2000/svg">
    <path fill-rule="evenodd" clip-rule="evenodd" d="M19.5 12V15H22.5V17H19.5V20H17.5V17H14.5V15H17.5V12H19.5ZM19.508 0C20.056 0 20.5 0.445 20.5 0.993V10.342C19.8576 10.1151 19.1813 9.99944 18.5 10V2H2.5L2.501 16L11.793 6.707C12.1488 6.35003 12.7148 6.31401 13.113 6.623L13.206 6.708L16.752 10.258C15.1852 10.7354 13.8816 11.8323 13.1432 13.2944C12.4049 14.7565 12.2961 16.4567 12.842 18.001L1.492 18C0.943972 17.9994 0.5 17.555 0.5 17.007V0.993C0.503808 0.446556 0.94556 0.00435839 1.492 0H19.508ZM6.5 4C7.60457 4 8.5 4.89543 8.5 6C8.5 7.10457 7.60457 8 6.5 8C5.39543 8 4.5 7.10457 4.5 6C4.5 4.89543 5.39543 4 6.5 4Z" fill="#000091"/>
    </svg>
    