<svg width="22" height="20" viewBox="0 0 22 20" fill="none" xmlns="http://www.w3.org/2000/svg">
    <path
        d="M13.833 2.4375C15.1792 2.4375 16.2705 1.34619 16.2705 0H17.3955C17.3955 1.34619 18.4868 2.4375 19.833 2.4375V3.5625C18.4868 3.5625 17.3955 4.65381 17.3955 6H16.2705C16.2705 4.65381 15.1792 3.5625 13.833 3.5625V2.4375ZM0.833008 9C4.14672 9 6.83301 6.31371 6.83301 3H8.83301C8.83301 6.31371 11.5193 9 14.833 9V11C11.5193 11 8.83301 13.6863 8.83301 17H6.83301C6.83301 13.6863 4.14672 11 0.833008 11V9ZM17.083 12C17.083 13.7949 15.6279 15.25 13.833 15.25V16.75C15.6279 16.75 17.083 18.2051 17.083 20H18.583C18.583 18.2051 20.0381 16.75 21.833 16.75V15.25C20.0381 15.25 18.583 13.7949 18.583 12H17.083Z"
        fill="#000091" />
</svg>
    