<svg width="21" height="21" viewBox="0 0 21 21" fill="none" xmlns="http://www.w3.org/2000/svg">
    <path fill-rule="evenodd" clip-rule="evenodd" d="M16.198 14.617L20.481 18.899L19.066 20.314L14.784 16.031C13.1907 17.3082 11.209 18.0029 9.16699 18C4.19899 18 0.166992 13.968 0.166992 9C0.166992 4.032 4.19899 0 9.16699 0C14.135 0 18.167 4.032 18.167 9C18.1699 11.042 17.4752 13.0237 16.198 14.617ZM14.192 13.875C15.4611 12.5699 16.1699 10.8204 16.167 9C16.167 5.132 13.034 2 9.16699 2C5.29899 2 2.16699 5.132 2.16699 9C2.16699 12.867 5.29899 16 9.16699 16C10.9874 16.0029 12.7369 15.2941 14.042 14.025L14.192 13.875Z" fill="#000091"/>
    </svg>
    